<?xml version="1.0" encoding="UTF-8"?>
<svg width="30px" height="40px" viewBox="0 0 30 40" version="1.1" xmlns="http://www.w3.org/2000/svg" xmlns:xlink="http://www.w3.org/1999/xlink">
    <!-- Generator: Sketch 50.2 (55047) - http://www.bohemiancoding.com/sketch -->
    <title>定位</title>
    <desc>Created with Sketch.</desc>
    <defs></defs>
    <g id="Page-1" stroke="none" stroke-width="1" fill="none" fill-rule="evenodd">
        <g id="企业模式" transform="translate(-1960.000000, -733.000000)">
            <g id="定位" transform="translate(1960.000000, 733.000000)">
                <circle id="Oval-2" fill="#FFFFFF" cx="15" cy="15" r="8"></circle>
                <path d="M15,39.9999543 C14.5335058,39.9999543 14.2760328,39.9426299 14.1120728,39.7457889 C14.0134737,39.6274375 4.09984832,27.5710869 1.45806193,21.7325527 C0.503658442,19.6410829 0,17.3700974 0,15.153922 C0,6.79622547 6.72869635,5.68434189e-14 15,5.68434189e-14 C23.2713036,5.68434189e-14 30,6.84321864 30,15.2523425 C30,17.7928987 29.5352012,19.7124869 28.3960025,21.8772349 C25.246007,27.8583485 15.9938431,39.6045809 15.9014455,39.7217895 C15.7910235,39.8632261 15.5938253,40 15.0231106,40 L15,40 L15,39.9999543 Z M15,9.3072966 C11.8190417,9.3072966 9.23074865,11.9592558 9.23074865,15.2185604 C9.23074865,18.4778651 11.8190417,21.1298243 15,21.1298243 C18.1809583,21.1298243 20.7692514,18.4778651 20.7692514,15.2185604 C20.7692514,11.9592558 18.1809583,9.3072966 15,9.3072966 Z" id="Shape" fill="#EC2700" fill-rule="nonzero"></path>
            </g>
        </g>
    </g>
</svg>